<svg xmlns="http://www.w3.org/2000/svg" fill="none" viewBox="0 0 24 24" class="Icon-module-scss-module__4iVZmW__icon undefined undefined " style="cursor: pointer; width: 20px; height: 20px;"><g clip-path="url(#Heart_svg__a)"><path stroke="#fff" d="m11.563 5.459.437.79.437-.79a5.9 5.9 0 0 1 5.056-3.042 6.3 6.3 0 0 1 6.007 6.53v.02c0 2.108-1.117 4.378-2.793 6.58-1.666 2.188-3.835 4.245-5.828 5.916a4.474 4.474 0 0 1-5.757 0c-1.994-1.671-4.163-3.728-5.83-5.917C1.618 13.345.5 11.076.5 8.966v-.019a6.3 6.3 0 0 1 6.007-6.53 5.9 5.9 0 0 1 5.056 3.042Z"></path></g><defs><clipPath id="Heart_svg__a"><path fill="#fff" d="M0 0h24v24H0z"></path></clipPath></defs></svg>